<svg width="28" height="28" viewBox="0 0 36 36" fill="none" xmlns="http://www.w3.org/2000/svg">
<path d="M6 15L5.29289 15.7071L4.58579 15L5.29289 14.2929L6 15ZM31 27C31 27.5523 30.5523 28 30 28C29.4477 28 29 27.5523 29 27L31 27ZM12.7929 23.2071L5.29289 15.7071L6.70711 14.2929L14.2071 21.7929L12.7929 23.2071ZM5.29289 14.2929L12.7929 6.79289L14.2071 8.20711L6.70711 15.7071L5.29289 14.2929ZM6 14L24 14L24 16L6 16L6 14ZM31 21L31 27L29 27L29 21L31 21ZM24 14C27.866 14 31 17.134 31 21L29 21C29 18.2386 26.7614 16 24 16L24 14Z" fill="#2C2C2C"/>
</svg>
